<?xml version="1.0" encoding="utf-8"?>
<!-- Generator: Adobe Illustrator 20.0.0, SVG Export Plug-In . SVG Version: 6.00 Build 0)  -->
<svg version="1.1" id="Layer_1" xmlns="http://www.w3.org/2000/svg" xmlns:xlink="http://www.w3.org/1999/xlink" x="0px" y="0px"
	 viewBox="0 0 374 374" style="enable-background:new 0 0 374 374;" xml:space="preserve">
<style type="text/css">
	.st0{fill:#FFFFFF;}
	.st1{font-family:'ChalkboardSE-Regular';}
	.st2{font-size:121.34px;}
	.st3{fill:none;stroke:#FFFFFF;stroke-width:40;stroke-miterlimit:10;}
</style>
<g id="Layer_1-2">
	<text transform="matrix(1.27 0 0 1 131.4902 219.2598)" class="st0 st1 st2">w</text>
	<ellipse class="st3" cx="187" cy="186.5" rx="116" ry="113.3"/>
	<path class="st0" d="M187.1,17.5L187.1,17.5c-3.2,16.2-13,30.3-27,39c2.9,13.8,13.9,24,26.9,24s24-10.3,26.9-24.1
		C199.9,47.7,190.2,33.6,187.1,17.5z"/>
	<path class="st0" d="M186.9,356.5L186.9,356.5c3.2-16.2,13-30.3,27-39c-2.9-13.8-13.9-24-26.9-24s-24,10.3-26.9,24.1
		C174.1,326.3,183.8,340.4,186.9,356.5z"/>
	<path class="st0" d="M14.5,187L14.5,187c16.2,3.2,30.3,12.9,39,26.9c13.8-3,24-13.9,24-27S67.2,163,53.3,160.1
		C44.7,174.1,30.6,183.8,14.5,187z"/>
	<path class="st0" d="M359.5,186.5L359.5,186.5c-16.2-3.2-30.3-12.9-39-26.9c-13.8,3-24,13.9-24,27s10.3,24,24.2,26.9
		C329.3,199.4,343.4,189.7,359.5,186.5z"/>
</g>
</svg>
